/* XPM */
static char *_2125_e3145d108ba526b4b335990efa4627c5f864329107a54eeb78e73d8ffc6f9c3e[] = {
/* columns rows colors chars-per-pixel */
"50 50 44 1 ",
"  c black",
". c #010000",
"X c #000100",
"o c #000001",
"O c #341E1A",
"+ c #351E1A",
"@ c #341F1A",
"# c #341E1B",
"$ c #351F1B",
"% c #683C34",
"& c #693C34",
"* c #683D34",
"= c #683C35",
"- c #A36C3E",
"; c #A26D3E",
": c #A36D3E",
"> c #A36D3F",
", c #158868",
"< c #148968",
"1 c #158968",
"2 c #158969",
"3 c #46C656",
"4 c #46C657",
"5 c #47C657",
"6 c #46C757",
"7 c #663A93",
"8 c #663B93",
"9 c #673B93",
"0 c #566A89",
"q c #566B89",
"w c #8B72DE",
"e c #8B72DF",
"r c #8BABBE",
"t c #8BAABF",
"y c #8AABBF",
"u c #8BABBF",
"i c #CCE2E0",
"p c #CCE2E1",
"a c #CCE3E1",
"s c #FFFFFE",
"d c #FFFEFF",
"f c #FEFFFF",
"g c white",
"h c None",
/* pixels */
"hhhhhhhhhhhhhhhhhhhhhhhhhhhhhhhhhhhhhhhhhhhhhhhhhh",
"hhhhhhhhhhhhhhhhhhhhhhhhhhhhhhhhhhhhhhhhhhhhhhhhhh",
"hhhhhhhhhhhhhhhhhhhhhhhhhhhhhhhhhhhhhhhhhhhhhhhhhh",
"hhhhhhhhhhhhhhhhhhhhhhhhhhhhhhhhhhhhhhhhhhhhhhhhhh",
"hhhhhhhhhhhhhhhhhhhhhhhhhhhhhhhhhhhhhhhhhhhhhhhhhh",
"hhhhhhhhhhhhhhhhhhhhhhhhhhhhhhhhhhhhhhhhhhhhhhhhhh",
"hhhhhhhhhhhhhhhhhhhhhho     hhhhhhhhhhhhhhhhhhhhhh",
"hhhhhhhhhhhhhhhhhhhhhX445641 hhhhhhhhhhhhhhhhhhhhh",
"hhhhhhhhhhhhhhhhhhhh.44454411 hhhhhhhhhhhhhhhhhhhh",
"hhhhhhhhhhhhhhhhhhh 14644441< hhhhhhhhhhhhhhhhhhhh",
"hhhhhhhhhhhhhhhhhhh 144454,21.hhhhhhhhhhhhhhhhhhhh",
"hhhhhhhhhhhhhhhhhhho121gggapp hhhhhhhhhhhhhhhhhhhh",
"hhhhhhhhhhhhhhhhhhho12<::::q  hhhhhhhhhhhhhhhhhhhh",
"hhhhhhhhhhhhhhhhhhho,1gggdppp.hhhhhhhhhhhhhhhhhhhh",
"hhhhhhhhhhhhhhhhhhh 11g:::-0o hhhhhhhhhhhhhhhhhhhh",
"hhhhhhhhhhhhhhhhhhhh %gsggaip hhhhhhhhhhhhhhhhhhhh",
"hhhhhhhhhhhhhhhhhhhh g%:::::  hhhhhhhhhhhhhhhhhhhh",
"hhhhhhhhhhhhhhhhhh o11d:::::t hhhhhhhhhhhhhhhhhhhh",
"hhhhhhhhhhhhhhhhh 1<454gfgggu.hhhhhhhhhhhhhhhhhhhh",
"hhhhhhhhhhhhhhhho12444444dsfgr hhhhhhhhhhhhhhhhhhh",
"hhhhhhhhhhhhhhhh 124354456ggg3 hhhhhhhhhhhhhhhhhhh",
"hhhhhhhhhhhhhhhX11244444544464 hhhhhhhhhhhhhhhhhhh",
"hhhhhhhhhhhhhhh <1244544464gd4 hhhhhhhhhhhhhhhhhhh",
"hhhhhhhhhhhhhhhX1,1gg44454ggg4 hhhhhhhhhhhhhhhhhhh",
"hhhhhhhhhhhhhhh gsgds54444gfd1Xhhhhhhhhhhhhhhhhhhh",
"hhhhhhhhhhhhhhh dggg:211211gd, hhhhhhhhhhhhhhhhhhh",
"hhhhhhhhhhhhhhh ::::-111111gg1 hhhhhhhhhhhhhhhhhhh",
"hhhhhhhhhhhhhhhh ::::><1111fg, hhhhhhhhhhhhhhhhhhh",
"hhhhhhhhhhhhhhhho:::::112<sggg% hhhhhhhhhhhhhhhhhh",
"hhhhhhhhhhhhhhhh ::::::111sfgg%ohhhhhhhhhhhhhhhhhh",
"hhhhhhhhhhhhhhhhh ::::;:11,11,% hhhhhhhhhhhhhhhhhh",
"hhhhhhhhhhhhhhhhh :::::-ww7887& hhhhhhhhhhhhhhhhhh",
"hhhhhhhhhhhhhhhhh 8::>:eww78988 hhhhhhhhhhhhhhhhhh",
"hhhhhhhhhhhhhhhh gg:-::-gdruuuy hhhhhhhhhhhhhhhhhh",
"hhhhhhhhhhhhhhhh ggd:>;:ggrutru hhhhhhhhhhhhhhhhhh",
"hhhhhhhhhhhhhhhh gfggfggguuutuy hhhhhhhhhhhhhhhhhh",
"hhhhhhhhhhhhhhhh sgdgfg  tryuuu hhhhhhhhhhhhhhhhhh",
"hhhhhhhhhhhhhhh dgfggg hh uuurut.hhhhhhhhhhhhhhhhh",
"hhhhhhhhhhhhhhh dsggsg hhouuuuyu hhhhhhhhhhhhhhhhh",
"hhhhhhhhhhhhhhh ;::::>ohh %%%%&% hhhhhhhhhhhhhhhhh",
"hhhhhhhhhhhhhhh :-::: hhhh.%%%%* hhhhhhhhhhhhhhhhh",
"hhhhhhhhhhhhhhh :::;:Xhhhh %*%&*.hhhhhhhhhhhhhhhhh",
"hhhhhhhhhhhhhhh ;->;- hhhh %%%%%= hhhhhhhhhhhhhhhh",
"hhhhhhhhhhhhhh f:::: hhhhhh %%%%%Xhhhhhhhhhhhhhhhh",
"hhhhhhhhhhhhhh.gdsgg hhhhhh tuuuuXhhhhhhhhhhhhhhhh",
"hhhhhhhhhhhhhh.ggggg hhhhhh tuuuu hhhhhhhhhhhhhhhh",
"hhhhhhhhhhhhhh gdggohhhhhhhh rutu hhhhhhhhhhhhhhhh",
"hhhhhhhhhhhhhh %%%% hhhhhhhh O+OOO hhhhhhhhhhhhhhh",
"hhhhhhhhhhhhhh %%%& hhhhhhhh ++$#@ hhhhhhhhhhhhhhh",
"hhhhhhhhhhhhhh &*%%ohhhhhhhh #OOO+ohhhhhhhhhhhhhhh"
};
