/* XPM */
static char *_8601_2f3341820be7fc282d34c5ae4d6ea53adcd96f4646fe6d4a930d2996dadfe241[] = {
/* columns rows colors chars-per-pixel */
"50 50 57 1 ",
"  c black",
". c #010000",
"X c #000100",
"o c #000001",
"O c #341E1A",
"+ c #351E1A",
"@ c #341F1A",
"# c #341E1B",
"$ c #683C34",
"% c #693C34",
"& c #683D34",
"* c #693D34",
"= c #683C35",
"- c #2C5B6C",
"; c #2C5B6D",
": c #A36C3E",
"> c #A26D3E",
", c #A36D3E",
"< c #A26D3F",
"1 c #A36D3F",
"2 c #148868",
"3 c #158868",
"4 c #148968",
"5 c #158968",
"6 c #148969",
"7 c #158969",
"8 c #46C656",
"9 c #46C756",
"0 c #46C657",
"q c #47C657",
"w c #46C757",
"e c #47C757",
"r c #663A92",
"t c #663B93",
"y c #673B93",
"u c #566A89",
"i c #8A72DE",
"p c #8B72DE",
"a c #8B73DE",
"s c #8AAABE",
"d c #8BAABE",
"f c #8AABBE",
"g c #8BABBE",
"h c #8AAABF",
"j c #8BAABF",
"k c #8AABBF",
"l c #8BABBF",
"z c #CCE2E1",
"x c #CDE2E1",
"c c #CCE3E1",
"v c #FFFEFE",
"b c #FEFFFE",
"n c #FFFFFE",
"m c #FFFEFF",
"M c #FEFFFF",
"N c white",
"B c None",
/* pixels */
"BBBBBBBBBBBBBBBBBBBBBBBBBBBBBBBBBBBBBBBBBBBBBBBBBB",
"BBBBBBBBBBBBBBBBBBBBBBBBBBBBBBBBBBBBBBBBBBBBBBBBBB",
"BBBBBBBBBBBBBBBBBBBBBBBBBBBBBBBBBBBBBBBBBBBBBBBBBB",
"BBBBBBBBBBBBBBBBBBBBBBBBBBBBBBBBBBBBBBBBBBBBBBBBBB",
"BBBBBBBBBBBBBBBBBBBBBBBBBBBBBBBBBBBBBBBBBBBBBBBBBB",
"BBBBBBBBBBBBBBBBBBBBBBBB.    oBBBBBBBBBBBBBBBBBBBB",
"BBBBBBBBBBBBBBBBBBBBBBB w00005 BBBBBBBBBBBBBBBBBBB",
"BBBBBBBBBBBBBBBBBBBBBB 0800w033 BBBBBBBBBBBBBBBBBB",
"BBBBBBBBBBBBBBBBBBBBB 5q0080055 BBBBBBBBBBBBBBBBBB",
"BBBBBBBBBBBBBBBBBBBBB 50w080456 BBBBBBBBBBBBBBBBBB",
"BBBBBBBBBBBBBBBBBBBBB 575MnNzzx BBBBBBBBBBBBBBBBBB",
"BBBBBBBBBBBBBBBBBBBBB.343>,,,u  BBBBBBBBBBBBBBBBBB",
"BBBBBBBBBBBBBBBBBBBBB 45NMNmzzx BBBBBBBBBBBBBBBBBB",
"BBBBBBBBBBBBBBBBBBBBB 55N,,,,uXoBBBBBBBBBBBBBBBBBB",
"BBBBBBBBBBBBBBBBBBBBBB $NNmNczz BBBBBBBBBBBBBBBBBB",
"BBBBBBBBBBBBBBBBBBBBBo.N$,<,,,  BBBBBBBBBBBBBBBBBB",
"BBBBBBBBBBBBBBBBBBB  555N,:,,,loBBBBBBBBBBBBBBBBBB",
"BBBBBBBBBBBBBBBBBB 53890qNNNNNl; BBBBBBBBBBBBBBBBB",
"BBBBBBBBBBBBBBBBB 530q0000NNNmm5 BBBBBBBBBBBBBBBBB",
"BBBBBBBBBBBBBBBB 555q000009NNN00 BBBBBBBBBBBBBBBBB",
"BBBBBBBBBBBBBBBBX555q00000800000- BBBBBBBBBBBBBBBB",
"BBBBBBBBBBBBBBBo5555000e0w00NN0w; BBBBBBBBBBBBBBBB",
"BBBBBBBBBBBBBBB nN735080000mMNwq;XBBBBBBBBBBBBBBBB",
"BBBBBBBBBBBBBBB NNNmNN00800MNN05l BBBBBBBBBBBBBBBB",
"BBBBBBBBBBBBBBB ,>NNNN553655NN43koBBBBBBBBBBBBBBBB",
"BBBBBBBBBBBBBBB 1,,,,1535555NN55$ BBBBBBBBBBBBBBBB",
"BBBBBBBBBBBBBBB ,,1<>>554545NM57$ BBBBBBBBBBBBBBBB",
"BBBBBBBBBBBBBBB ,:1:,555555NNNM3$ BBBBBBBBBBBBBBBB",
"BBBBBBBBBBBBBBBX,,,,>554555NMmN5$ BBBBBBBBBBBBBBBB",
"BBBBBBBBBBBBBBB ,,,,,55552555555$.BBBBBBBBBBBBBBBB",
"BBBBBBBBBBBBBBBo,,,,,,pppppptrtt=$ BBBBBBBBBBBBBBB",
"BBBBBBBBBBBBBBBBo,,,1,ippppattyy%$oBBBBBBBBBBBBBBB",
"BBBBBBBBBBBBBBBB ,,:1NNNMnmmljkk&  BBBBBBBBBBBBBBB",
"BBBBBBBBBBBBBBBB.,,,,NNnnNNNgldf$ BBBBBBBBBBBBBBBB",
"BBBBBBBBBBBBBBBBB X,,NNvnNNjljlk$ BBBBBBBBBBBBBBBB",
"BBBBBBBBBBBBBBBBBBB  NnnmNmdjlgg  BBBBBBBBBBBBBBBB",
"BBBBBBBBBBBBBBBBBBBB NNbNNngglgsXBBBBBBBBBBBBBBBBB",
"BBBBBBBBBBBBBBBBBBBB.NmMNNNljlgf BBBBBBBBBBBBBBBBB",
"BBBBBBBBBBBBBBBBBBBB :<1,1,,$$=$ BBBBBBBBBBBBBBBBB",
"BBBBBBBBBBBBBBBBBBBB ,1,,<,,=&%$ BBBBBBBBBBBBBBBBB",
"BBBBBBBBBBBBBBBBBBBBBX,,,,,1$&$% BBBBBBBBBBBBBBBBB",
"BBBBBBBBBBBBBBBBBBBBB 1,,11,$$= BBBBBBBBBBBBBBBBBB",
"BBBBBBBBBBBBBBBBBBBBB NN1,>=*$$ BBBBBBBBBBBBBBBBBB",
"BBBBBBBBBBBBBBBBBBBBB nNNNN$$%$ BBBBBBBBBBBBBBBBBB",
"BBBBBBBBBBBBBBBBBBBBB.NnNNNljhk BBBBBBBBBBBBBBBBBB",
"BBBBBBBBBBBBBBBBBBBB =nmNN jlll BBBBBBBBBBBBBBBBBB",
"BBBBBBBBBBBBBBBBBBBB =$*$  llkl BBBBBBBBBBBBBBBBBB",
"BBBBBBBBBBBBBBBBBBBB =$=$XoOOOOO BBBBBBBBBBBBBBBBB",
"BBBBBBBBBBBBBBBBBBBBBo   B +@#OO BBBBBBBBBBBBBBBBB",
"BBBBBBBBBBBBBBBBBBBBBBBBBB +OOOO BBBBBBBBBBBBBBBBB"
};
