/* XPM */
static char *_3382_0b55d27fc3f084f6a4bc1fe607dab93e0440bbb6f3f72238c8ce7124af6b50a8[] = {
/* columns rows colors chars-per-pixel */
"50 50 54 1 ",
"  c black",
". c #010000",
"X c #000100",
"o c #000001",
"O c #341E1A",
"+ c #351E1A",
"@ c #341F1A",
"# c #341E1B",
"$ c #683C34",
"% c #693C34",
"& c #683D34",
"* c #683C35",
"= c #693C35",
"- c #2C5A6D",
"; c #2C5B6D",
": c #2D5B6D",
"> c #A26C3E",
", c #A36C3E",
"< c #A26D3E",
"1 c #A36D3E",
"2 c #A36C3F",
"3 c #A26D3F",
"4 c #A36D3F",
"5 c #148868",
"6 c #158868",
"7 c #148968",
"8 c #158968",
"9 c #148969",
"0 c #158969",
"q c #46C656",
"w c #46C657",
"e c #47C657",
"r c #46C757",
"t c #663A93",
"y c #663B93",
"u c #576A89",
"i c #566B89",
"p c #8B72DE",
"a c #8B72DF",
"s c #8BAABE",
"d c #8AABBE",
"f c #8BABBE",
"g c #8BAABF",
"h c #8AABBF",
"j c #8BABBF",
"k c #CCE2E0",
"l c #CCE2E1",
"z c #CDE2E1",
"x c #CCE3E1",
"c c #FFFFFE",
"v c #FFFEFF",
"b c #FEFFFF",
"n c white",
"m c None",
/* pixels */
"mmmmmmmmmmmmmmmmmmmmmmmmmmmmmmmmmmmmmmmmmmmmmmmmmm",
"mmmmmmmmmmmmmmmmmmmmmmmmmmmmmmmmmmmmmmmmmmmmmmmmmm",
"mmmmmmmmmmmmmmmmmmmmmmmmmmmmmmmmmmmmmmmmmmmmmmmmmm",
"mmmmmmmmmmmmmmmmmmmmmmmmmmmmmmmmmmmmmmmmmmmmmmmmmm",
"mmmmmmmmmmmmmmmmmmmmmmmmmmmmmmmmmmmmmmmmmmmmmmmmmm",
"mmmmmmmmmmmmmmmmmmmmmmmm.   X mmmmmmmmmmmmmmmmmmmm",
"mmmmmmmmmmmmmmmmmmmmmmm wwwww0 mmmmmmmmmmmmmmmmmmm",
"mmmmmmmmmmmmmmmmmmmmmm wwwwww88 mmmmmmmmmmmmmmmmmm",
"mmmmmmmmmmmmmmmmmmmmm.7wrwwrw88 mmmmmmmmmmmmmmmmmm",
"mmmmmmmmmmmmmmmmmmmmm 9wwwww086 mmmmmmmmmmmmmmmmmm",
"mmmmmmmmmmmmmmmmmmmmmX888cnvlllommmmmmmmmmmmmmmmmm",
"mmmmmmmmmmmmmmmmmmmmm 858111,u Xmmmmmmmmmmmmmmmmmm",
"mmmmmmmmmmmmmmmmmmmmm 88nnnnlzl mmmmmmmmmmmmmmmmmm",
"mmmmmmmmmmmmmmmmmmmmm 88n1,<1i  mmmmmmmmmmmmmmmmmm",
"mmmmmmmmmmmmmmmmmmmmmm $nnnnkxx mmmmmmmmmmmmmmmmmm",
"mmmmmmmmmmmmmmmmmmmm   n$11<,>o mmmmmmmmmmmmmmmmmm",
"mmmmmmmmmmmmmmmmmm  868bn11111s; mmmmmmmmmmmmmmmmm",
"mmmmmmmmmmmmmmmmmo68wwwwnnnnnnj;; mmmmmmmmmmmmmmmm",
"mmmmmmmmmmmmmmmm.88wewqwwnnvnbn6;ommmmmmmmmmmmmmmm",
"mmmmmmmmmmmmmmm 867werqwrwbncnww;;ommmmmmmmmmmmmmm",
"mmmmmmmmmmmmmmm 888wwrqwwqwrweww:- mmmmmmmmmmmmmmm",
"mmmmmmmmmmmmmm 8788wwwwewwwvnwwq;; mmmmmmmmmmmmmmm",
"mmmmmmmmmmmmmm.nn886ewwwwwnnneww-; mmmmmmmmmmmmmmm",
"mmmmmmmmmmmmmXbncnn78rwewwnvnww0jjd mmmmmmmmmmmmmm",
"mmmmmmmmmmmmm 11cnvn8080808nn888hjj mmmmmmmmmmmmmm",
"mmmmmmmmmmmmm 1111118888888nn788$*% mmmmmmmmmmmmmm",
"mmmmmmmmmmmmm 11111 7808808vn878&$$ mmmmmmmmmmmmmm",
"mmmmmmmmmmmm 11>411 787686nncn88$$%%ommmmmmmmmmmmm",
"mmmmmmmmmmmm ,1<11 o880880nncb68$$$$Xmmmmmmmmmmmmm",
"mmmmmmmmmmmm 11<11  880888888888&$$& mmmmmmmmmmmmm",
"mmmmmmmmmmmm 11<,1  ypappappyyty*$$$& mmmmmmmmmmmm",
"mmmmmmmmmmmm 11,,1  ypapppppyyyy$$&$$ mmmmmmmmmmmm",
"mmmmmmmmmmmm 1,<1omm vcnnnnvnjj *%$$  mmmmmmmmmmmm",
"mmmmmmmmmmmm 4311 mm jnbnnnnnjj *$$$ mmmmmmmmmmmmm",
"mmmmmmmmmmmmm .,, mm jnnvcnncnj   $$ mmmmmmmmmmmmm",
"mmmmmmmmmmmmmmm X mm jhnnnnnnn mm.   mmmmmmmmmmmmm",
"mmmmmmmmmmmmmmmmmmmmm jnncbnnn mmmmmmmmmmmmmmmmmmm",
"mmmmmmmmmmmmmmmmmmmmm jh<,111> mmmmmmmmmmmmmmmmmmm",
"mmmmmmmmmmmmmmmmmmmmmm $1,11<1 mmmmmmmmmmmmmmmmmmm",
"mmmmmmmmmmmmmmmmmmmmmm.$$141111 mmmmmmmmmmmmmmmmmm",
"mmmmmmmmmmmmmmmmmmmmmm *$<12111ommmmmmmmmmmmmmmmmm",
"mmmmmmmmmmmmmmmmmmmmmm $$$1,111 mmmmmmmmmmmmmmmmmm",
"mmmmmmmmmmmmmmmmmmmmmm $&$41nbn mmmmmmmmmmmmmmmmmm",
"mmmmmmmmmmmmmmmmmmmmmm $*$$nnbv mmmmmmmmmmmmmmmmmm",
"mmmmmmmmmmmmmmmmmmmmmm jhfjnnnn mmmmmmmmmmmmmmmmmm",
"mmmmmmmmmmmmmmmmmmmmmm ggjs$%$&$ mmmmmmmmmmmmmmmmm",
"mmmmmmmmmmmmmmmmmmmmmm jjjf$=$*$ mmmmmmmmmmmmmmmmm",
"mmmmmmmmmmmmmmmmmmmmmm +OOOO$$$= mmmmmmmmmmmmmmmmm",
"mmmmmmmmmmmmmmmmmmmmmm O+@OO    mmmmmmmmmmmmmmmmmm",
"mmmmmmmmmmmmmmmmmmmmmm O#+OO mmmmmmmmmmmmmmmmmmmmm"
};
