/* XPM */
static char *_2241_ee8957cd904921d5adeabc9ffbdfd8713074600b2193224c8e50fe9e37b17dc1[] = {
/* columns rows colors chars-per-pixel */
"50 50 44 1 ",
"  c black",
". c #010000",
"X c #000100",
"o c #000001",
"O c #010101",
"+ c #341E1A",
"@ c #341F1A",
"# c #341E1B",
"$ c #683C34",
"% c #693C34",
"& c #683D34",
"* c #683C35",
"= c #2C5B6C",
"- c #2C5B6D",
"; c #2D5B6D",
": c #A36C3E",
"> c #A26D3E",
", c #A36D3E",
"< c #A36D3F",
"1 c #158868",
"2 c #148968",
"3 c #158968",
"4 c #158969",
"5 c #46C656",
"6 c #46C657",
"7 c #47C657",
"8 c #46C757",
"9 c #663B93",
"0 c #673B93",
"q c #566A89",
"w c #8B72DE",
"e c #8B73DE",
"r c #8B72DF",
"t c #8BABBE",
"y c #8BAABF",
"u c #8AABBF",
"i c #8BABBF",
"p c #CCE2E1",
"a c #CDE2E1",
"s c #FFFFFE",
"d c #FFFEFF",
"f c #FEFFFF",
"g c white",
"h c None",
/* pixels */
"hhhhhhhhhhhhhhhhhhhhhhhhhhhhhhhhhhhhhhhhhhhhhhhhhh",
"hhhhhhhhhhhhhhhhhhhhhhhhhhhhhhhhhhhhhhhhhhhhhhhhhh",
"hhhhhhhhhhhhhhhhhhhhhhhhhhhhhhhhhhhhhhhhhhhhhhhhhh",
"hhhhhhhhhhhhhhhhhhhhhhhhhhhhhhhhhhhhhhhhhhhhhhhhhh",
"hhhhhhhhhhhhhhhhhhhhhhhhhhhhhhhhhhhhhhhhhhhhhhhhhh",
"hhhhhhhhhhhhhhhhhhhhhhhhhhhhhhhhhhhhhhhhhhhhhhhhhh",
"hhhhhhhhhhhhhhhhhhhhhhhh o    hhhhhhhhhhhhhhhhhhhh",
"hhhhhhhhhhhhhhhhhhhhhhh 656862 hhhhhhhhhhhhhhhhhhh",
"hhhhhhhhhhhhhhhhhhhhhh 76666633 hhhhhhhhhhhhhhhhhh",
"hhhhhhhhhhhhhhhhhhhhh 366668633 hhhhhhhhhhhhhhhhhh",
"hhhhhhhhhhhhhhhhhhhhh.366668331 hhhhhhhhhhhhhhhhhh",
"hhhhhhhhhhhhhhhhhhhhh 333sggppp hhhhhhhhhhhhhhhhhh",
"hhhhhhhhhhhhhhhhhhhhh 333,,:,q  hhhhhhhhhhhhhhhhhh",
"hhhhhhhhhhhhhhhhhhhhh 43ggfgppp hhhhhhhhhhhhhhhhhh",
"hhhhhhhhhhhhhhhhhhhhh 42d<>,<q  hhhhhhhhhhhhhhhhhh",
"hhhhhhhhhhhhhhhhhhhhhh $gsggpap hhhhhhhhhhhhhhhhhh",
"hhhhhhhhhhhhhhhhhhhh.  g$,>,,,  hhhhhhhhhhhhhhhhhh",
"hhhhhhhhhhhhhhhhhh  333gd,,,,>i-Xhhhhhhhhhhhhhhhhh",
"hhhhhhhhhhhhhhhhh 33686gdgggggi3- hhhhhhhhhhhhhhhh",
"hhhhhhhhhhhhhhhh 3366667gggdsg86- hhhhhhhhhhhhhhhh",
"hhhhhhhhhhhhhhh 333666666sfgg666;- hhhhhhhhhhhhhhh",
"hhhhhhhhhhhhhh 33336666666666766-- hhhhhhhhhhhhhhh",
"hhhhhhhhhhhhhh 33335666766gg5766--= hhhhhhhhhhhhhh",
"hhhhhhhhhhhhh ggg23676676ggg6686;-- hhhhhhhhhhhhhh",
"hhhhhhhhhhhhh gdggg438566ggg6663iyiohhhhhhhhhhhhhh",
"hhhhhhhhhhhh ,>,gfg 333313gd3233iitiOhhhhhhhhhhhhh",
"hhhhhhhhhhhh ,,,<,  313233gg3313$&$$ hhhhhhhhhhhhh",
"hhhhhhhhhhh.,<>,,,  334233gd3333$$$$.hhhhhhhhhhhhh",
"hhhhhhhhhhh :<>,,Xh 33333gggs313$$$$$ohhhhhhhhhhhh",
"hhhhhhhhhhh ,<,,, h 31431gggs333$$$$&.hhhhhhhhhhhh",
"hhhhhhhhhh ,,,,, hh 333334234234 $$$&*ohhhhhhhhhhh",
"hhhhhhhhhh.,,,,, hh 9erwewwe9999 $$$$$ hhhhhhhhhhh",
"hhhhhhhhhh >,,, hhh 9wwwwwww90999 $$$. hhhhhhhhhhh",
"hhhhhhhhhh ,,,, hhXiuyiuigfgggdgf *%$ hhhhhhhhhhhh",
"hhhhhhhhhhho <, hh iiiiuiigdgggsg  $$ hhhhhhhhhhhh",
"hhhhhhhhhhhhh   hh.iiytuyiggggggf h   hhhhhhhhhhhh",
"hhhhhhhhhhhhhhhhhh tiitii oggggggg hhhhhhhhhhhhhhh",
"hhhhhhhhhhhhhhhhh yiiyiuohh sggggg hhhhhhhhhhhhhhh",
"hhhhhhhhhhhhhhhhh yiiiii hh gfdgfg hhhhhhhhhhhhhhh",
"hhhhhhhhhhhhhhhhh $$$$$$ hho,>,,>: hhhhhhhhhhhhhhh",
"hhhhhhhhhhhhhhhhh $$$$$ hhhh ,:,,, hhhhhhhhhhhhhhh",
"hhhhhhhhhhhhhhhhh $*$&* hhhh >,,,,ohhhhhhhhhhhhhhh",
"hhhhhhhhhhhhhhhhhX$$$$$ hhhh ,,,>,< hhhhhhhhhhhhhh",
"hhhhhhhhhhhhhhhh i&*$$ hhhhhh ,,,:,Xhhhhhhhhhhhhhh",
"hhhhhhhhhhhhhhhh iyiiy hhhhhh ggggs hhhhhhhhhhhhhh",
"hhhhhhhhhhhhhhhh iiiii hhhhhh.ggfgg hhhhhhhhhhhhhh",
"hhhhhhhhhhhhhhhh iiii hhhhhhhh sgds.hhhhhhhhhhhhhh",
"hhhhhhhhhhhhhhhh ++++ hhhhhhhh $$$$$ hhhhhhhhhhhhh",
"hhhhhhhhhhhhhhhh ++#+ hhhhhhhhX$$$$$ hhhhhhhhhhhhh",
"hhhhhhhhhhhhhhhh +@++ hhhhhhhh $$&$$ hhhhhhhhhhhhh"
};
