/* XPM */
static char *_696_8a82735e358affac474366fce23e24b9038fbbc1b6e82243b400597ec3c3d7f5[] = {
/* columns rows colors chars-per-pixel */
"50 50 46 1 ",
"  c black",
". c #010000",
"X c #000100",
"o c #000001",
"O c #341E1A",
"+ c #351E1A",
"@ c #341F1A",
"# c #683C34",
"$ c #693C34",
"% c #683D34",
"& c #683C35",
"* c #2C5B6C",
"= c #2C5B6D",
"- c #2D5B6D",
"; c #A26C3E",
": c #A36C3E",
"> c #A26D3E",
", c #A36D3E",
"< c #A36C3F",
"1 c #A36D3F",
"2 c #148868",
"3 c #158868",
"4 c #148968",
"5 c #158968",
"6 c #158969",
"7 c #46C656",
"8 c #46C657",
"9 c #47C657",
"0 c #46C757",
"q c #663B92",
"w c #663B93",
"e c #566A89",
"r c #8B72DE",
"t c #8B73DE",
"y c #8B72DF",
"u c #8BABBE",
"i c #8BAABF",
"p c #8AABBF",
"a c #8BABBF",
"s c #CCE2E0",
"d c #CCE2E1",
"f c #FFFFFE",
"g c #FFFEFF",
"h c #FEFFFF",
"j c white",
"k c None",
/* pixels */
"kkkkkkkkkkkkkkkkkkkkkkkkkkkkkkkkkkkkkkkkkkkkkkkkkk",
"kkkkkkkkkkkkkkkkkkkkkkkkkkkkkkkkkkkkkkkkkkkkkkkkkk",
"kkkkkkkkkkkkkkkkkkkkkkkkkkkkkkkkkkkkkkkkkkkkkkkkkk",
"kkkkkkkkkkkkkkkkkkkkkkkkkkkkkkkkkkkkkkkkkkkkkkkkkk",
"kkkkkkkkkkkkkkkkkkkkkkkkkkkkkkkkkkkkkkkkkkkkkkkkkk",
"kkkkkkkkkkkkkkkkkkkkkkkk X    kkkkkkkkkkkkkkkkkkkk",
"kkkkkkkkkkkkkkkkkkkkkkk 888875 kkkkkkkkkkkkkkkkkkk",
"kkkkkkkkkkkkkkkkkkkkkk 80888865okkkkkkkkkkkkkkkkkk",
"kkkkkkkkkkkkkkkkkkkkk 490888855Xkkkkkkkkkkkkkkkkkk",
"kkkkkkkkkkkkkkkkkkkkk 388888555 kkkkkkkkkkkkkkkkkk",
"kkkkkkkkkkkkkkkkkkkkk 555jjjdsd kkkkkkkkkkkkkkkkkk",
"kkkkkkkkkkkkkkkkkkkkk 555,;,,e Xkkkkkkkkkkkkkkkkkk",
"kkkkkkkkkkkkkkkkkkkkk 55gjjjddd kkkkkkkkkkkkkkkkkk",
"kkkkkkkkkkkkkkkkkkkkk 53j,,,>e  kkkkkkkkkkkkkkkkkk",
"kkkkkkkkkkkkkkkkkkkkkkX#gjjjdddXkkkkkkkkkkkkkkkkkk",
"kkkkkkkkkkkkkkkkkkkkX  j#,,,,,o kkkkkkkkkkkkkkkkkk",
"kkkkkkkkkkkkkkkkkkX 545jj:,11,a= kkkkkkkkkkkkkkkkk",
"kkkkkkkkkkkkkkkkko459888gjjjjha-= kkkkkkkkkkkkkkkk",
"kkkkkkkkkkkkkkkk 55788788jjjfjj4= kkkkkkkkkkkkkkkk",
"kkkkkkkkkkkkkkk 4458888988hjjj08== kkkkkkkkkkkkkkk",
"kkkkkkkkkkkkkkk 3558988888887888*= kkkkkkkkkkkkkkk",
"kkkkkkkkkkkkkk 355388888878jj808== kkkkkkkkkkkkkkk",
"kkkkkkkkkkkkkk jf555988807jjf808== kkkkkkkkkkkkkkk",
"kkkkkkkkkkkkk jjjjg3587808jjf885paa kkkkkkkkkkkkkk",
"kkkkkkkkkkkkk 1,jjjj6525555jf552aaa kkkkkkkkkkkkkk",
"kkkkkkkkkkkkko1,,<,,5555555gj564#&# kkkkkkkkkkkkkk",
"kkkkkkkkkkkkk :,,,: 2535635jj355#%#okkkkkkkkkkkkkk",
"kkkkkkkkkkkko,,1,,1 555454jjfj55####okkkkkkkkkkkkk",
"kkkkkkkkkkkk ,1>,, o554455jjfj65##$% kkkkkkkkkkkkk",
"kkkkkkkkkkkk ,,,,1  355643556555#%#$ kkkkkkkkkkkkk",
"kkkkkkkkkkkk >,,,, .wryrrrrrwwww#$%## kkkkkkkkkkkk",
"kkkkkkkkkkkk 1,,;,  wtrrtrrrwwwq#&##& kkkkkkkkkkkk",
"kkkkkkkkkkkk ,,,, k paaaijjjfjgj##&#  kkkkkkkkkkkk",
"kkkkkkkkkkkk ,,>1 k apaaajhjjjgj#$## kkkkkkkkkkkkk",
"kkkkkkkkkkkkk  ,1.k iupaajjgjjjj  ## kkkkkkkkkkkkk",
"kkkkkkkkkkkkkkk   k aaupaajjjjjj .X  kkkkkkkkkkkkk",
"kkkkkkkkkkkkkkkkkkkk pauaahjjjjj kkkkkkkkkkkkkkkkk",
"kkkkkkkkkkkkkkkkkkkk apaaaagjjjj kkkkkkkkkkkkkkkkk",
"kkkkkkkkkkkkkkkkkkkk ####&#::,,, kkkkkkkkkkkkkkkkk",
"kkkkkkkkkkkkkkkkkkkkX$#&###,>,,, kkkkkkkkkkkkkkkkk",
"kkkkkkkkkkkkkkkkkkkkk ##&##,,,,, kkkkkkkkkkkkkkkkk",
"kkkkkkkkkkkkkkkkkkkkk.##%##,,,, kkkkkkkkkkkkkkkkkk",
"kkkkkkkkkkkkkkkkkkkkk aa###,11,.kkkkkkkkkkkkkkkkkk",
"kkkkkkkkkkkkkkkkkkkkk aaaaa,,,, kkkkkkkkkkkkkkkkkk",
"kkkkkkkkkkkkkkkkkkkkk aaiuagjjjXkkkkkkkkkkkkkkkkkk",
"kkkkkkkkkkkkkkkkkkkkXOiuaiXjjjj.kkkkkkkkkkkkkkkkkk",
"kkkkkkkkkkkkkkkkkkkk @OO+  gjjg kkkkkkkkkkkkkkkkkk",
"kkkkkkkkkkkkkkkkkkkk OOOO  ###%& kkkkkkkkkkkkkkkkk",
"kkkkkkkkkkkkkkkkkkkkko  ok ##&##Xkkkkkkkkkkkkkkkkk",
"kkkkkkkkkkkkkkkkkkkkkkkkkk ##### kkkkkkkkkkkkkkkkk"
};
