/* XPM */
static char *_4663_afb8ee101927e6a02e1e90f6feb3fa375480a2af4042d70c8d72db3c892f49b7[] = {
/* columns rows colors chars-per-pixel */
"50 50 146 2 ",
"   c #5D4624",
".  c #5F4824",
"X  c #5B472A",
"o  c #5C492C",
"O  c #624D2D",
"+  c #65502F",
"@  c #6D542D",
"#  c #634F30",
"$  c #665231",
"%  c #6A5533",
"&  c #6E5935",
"*  c #725C35",
"=  c #745E38",
"-  c #76603A",
";  c #7C653C",
":  c #7F693E",
">  c #796540",
",  c #7E6942",
"<  c #796D63",
"1  c #756E69",
"2  c #77706C",
"3  c #7B726C",
"4  c #7C7571",
"5  c #7E7871",
"6  c #80673F",
"7  c #81693E",
"8  c #836C42",
"9  c #896F43",
"0  c #846F48",
"q  c #857045",
"w  c #8B7246",
"e  c #8D7549",
"r  c #927547",
"t  c #92774A",
"y  c #93794B",
"u  c #9A7D4E",
"i  c #846F56",
"p  c #8C7651",
"a  c #8B705A",
"s  c #957D51",
"d  c #9B7F51",
"f  c #90785F",
"g  c #9C7B5C",
"h  c #A17F4F",
"j  c #A57C57",
"k  c #AC7D55",
"l  c #817162",
"z  c #8D7661",
"x  c #83766A",
"c  c #917A64",
"v  c #987A60",
"b  c #937E68",
"n  c #837877",
"m  c #857B79",
"M  c #8A7E7E",
"N  c #9D8152",
"B  c #9D8458",
"V  c #A28453",
"C  c #A58856",
"Z  c #AB8957",
"A  c #A38659",
"S  c #A9845F",
"D  c #A5895B",
"F  c #AB8C5A",
"G  c #B28356",
"H  c #B2875B",
"J  c #B38E5B",
"K  c #BB8E5D",
"L  c #B4925E",
"P  c #BB935E",
"I  c #9F8866",
"U  c #9F866D",
"Y  c #9B8A76",
"T  c #95867F",
"R  c #A48767",
"E  c #AB8663",
"W  c #AB8C62",
"Q  c #A38A6D",
"!  c #A88A6F",
"~  c #B38E62",
"^  c #B98F62",
"/  c #B68F6A",
"(  c #B59463",
")  c #BB9663",
"_  c #BC9964",
"`  c #B5966A",
"'  c #B8966C",
"]  c #BC9A6A",
"[  c #A28D74",
"{  c #AE9373",
"}  c #B79871",
"|  c #BE9C78",
" . c #C3955F",
".. c #C29760",
"X. c #C49A63",
"o. c #CD9E65",
"O. c #C1976D",
"+. c #C29D6B",
"@. c #CB9E69",
"#. c #C19E75",
"$. c #C29F79",
"%. c #CEA067",
"&. c #C5A16D",
"*. c #CEA26B",
"=. c #D0A46E",
"-. c #D1A86F",
";. c #C6A474",
":. c #CCA573",
">. c #CFA876",
",. c #C6A47C",
"<. c #CBA67A",
"1. c #CDA97B",
"2. c #D1A672",
"3. c #D3A975",
"4. c #D5AD7C",
"5. c #D6B07F",
"6. c #8D8381",
"7. c #938683",
"8. c #978A83",
"9. c #998A85",
"0. c #968989",
"q. c #9C8F8E",
"w. c #A5948D",
"e. c #AA968D",
"r. c #A29393",
"t. c #AE9A94",
"y. c #A89799",
"u. c #A79899",
"i. c #AE9C9E",
"p. c #B09D9D",
"a. c #BCA08B",
"s. c #BCA292",
"d. c #B6A19A",
"f. c #BAA49A",
"g. c #B19FA1",
"h. c #B5A3A4",
"j. c #C4A387",
"k. c #CBAA83",
"l. c #C3A489",
"z. c #D3AE82",
"x. c #D7B181",
"c. c #D8B485",
"v. c #D4B38B",
"b. c #C7AC96",
"n. c #CBAF92",
"m. c None",
/* pixels */
"m.m.m.m.m.m.m.m.m.m.m.m.m.o o o o o o o o o o o o o o o o o o o o o o o m.m.m.m.m.m.m.m.m.m.m.m.m.m.",
"m.m.m.m.m.m.o o o o o o o o o o o O o o O + % & & % & % % % $ + @ O % % % % $ O o o o m.m.m.m.m.m.m.",
"m.m.m.m.m.o o O + + & & % $ o o o % - ; : 7 w t u N N t y t w ; @ ; w w w w 7 ; ; @ $ o m.m.m.m.m.m.",
"m.m.m.o o # * ; 9 * w w 8 : ; - * & + % q _ -.-.:.-.*.-.-.*.-.*.&.*.*.*.*.*.&.X.C ; + O o m.m.m.m.m.",
"m.m.o O $ ; w _ *.-.-.-.A _ ) V t w ; @ ) 2.=.*.*.=.%.=.%.%.%.%.o.o.o.o.o.o.o.o.o.X.t 7 % o m.m.m.m.",
"m.o O + ; D *.%.o.o.o.o.V P *.=.-.:.:.*.-.-.=.-.=.=.=.=.=.=.*.*.*.P G P o.o.o.o.L e > t : * o m.m.m.",
"m.o $ ; F *.o.o.o.o.o.%.V J o.*.*.=.=.=.2.2.2.2.2.2.2.2.2.2.=.=.=.X.` l.f.t.' V Z P t o.N 6 * o o m.",
"m.o ; t %.o.o.o.o.o.P  .u Z =.*.-.2.2.3.2.3.3.3.3.3.3.3.3.3.2.=.+.{ g.h.h.h.7.K o.o. .P o.N ; % o m.",
"m.O : C o.o.o.P u N L N y *.2.2.2.2.3.3.3.3.3.4.4.3.3.4.3.3.3.:.} r.h.h.h.h.q.H o.o.o.o.%. .7 ; o o ",
"m.% ; J J o. .t P %.%.P J 2.3.3.3.4.3.4.4.4.4.4.4.4.5.3.( 3.3.3.$.7.r.y.g.g.M E o.o.o.o.%.N + @ O o ",
"m.% : J V o.Z X.%.*.%.V :.3.3.3.4.3.4.4.4.5.5.4.5.5.5.3.4.3.5.3.3.$.x 4 M n 1 ^ %.o.o.%. .q * + o o ",
"o % : Z t K V P *.*.F C 3.3.3.D Z +.4.5.4.5.5.x.5.5.5.5.x.5.5.x.4.3.3.E i v E @.%.%.o.%.Z 7 * o o o ",
"o $ ; 9 t N X.t J N F :.3.3.D D <.:.4.4.x.5.x.x.x.x.x.x.z.x.5.5.4.4.4.4.2.2.2.2.=.*.o.o.N ; O o o o ",
"o $ : ; = e %.t s X.3.3.3.;.s 4.O.Z x.x.x.x.x.x.x.x.x.x.x.x.x.5.4.4.4.4.3.4.3.3.-.=.*.=.u ; o o o m.",
"o o % & O w =.F ;.l.<.3.4.D ] x.4.4.x.x.x.c.x.c.c.x.c.x.x.x.x.x.5.x.5.4.4.3.3.3.2.=.=.o.A ; o % o m.",
"o o o o ; t o.I h.r.Q 3.4.s 4.z.x.x.x.c.x.c.c.x.c.c.x.c.c.c.x.x.x.x.x.x.4.5.3.3.3.=.=.=._ : - ; o m.",
"o o $ - 7 t F Q 7.x ( 4.1.N 5.5.x.c.c.x.c.c.c.c.c.c.c.c.c.c.c.c.x.x.x.4.x.4.4.3.3.2.2.*.*.L 9 : o m.",
"o + ; 9 V @.F y p O.3.5.4.B 5.c.c.x.c.c.c.c.c.c.( &.c.c.c.c.c.c.c.x.x.x.x.4.4.4.3.2.2.=.%.=.C ; o m.",
"o & 7 X.*.=.2.O.0 ` 5.3.1.B c.x.c.c.c.x.c.c.c.c.c.c.c.c.c.c.c.c.x.x.x.x.x.4.4.>.@.2.2.2.=.%.( ; o m.",
"o - t *.%.=.2.3.] W 5.5.` W 5.c.x.c.c.c.c.c.c.c.c.c.c.c.c.c.c.c.c.c.c.x.4.x.4.@.~ 3.2.2.*.=.( ; o m.",
"o - u *.o.2.2.3.3.A 1.+.p ;.c.5.c.c.c.c.c.c.c.v.c.c.c.c.c.c.c.c.c.x.x.x.x.x.x.4.4.3.3.2.*.*.) ; o m.",
"o - u *.=.=.3.3.3.e 0 , ` x.c.c.c.c.c.c.c.c.c.c.c.v.c.c.c.c.v.c.c.c.c.c.x.x.4.4.4.3.3.2.=.2.H & o m.",
"o - t *.=.2.3.3.4.s = ` x.x.x.c.c.c.c.c.c.c.c.c.c.c.1.x.c.c.c.c.c.c.c.x.x.x.x.4.4.3.3.2.=.2.u % o m.",
"o * w :.=.2.<.3.3.B D z.x.x.c.c.c.c.c.v.c.c.v.c.c.c.#.c.c.c.c.c.c.c.c.x.x.x.4.x.4.k.k.2.=.*.) ; o m.",
"o % 7 -.=.=.3.3.4.A <.5.x.c.x.c.c.c.c.c.c.c.c.c.c.c.c.c.c.c.c.c.c.c.c.x.x.x.x.4.k.h.h.d.#.=._ ; o m.",
"o   * &.=.2.3.3.4.D 5.5.x.x.c.c.c.c.c.c.c.c.c.c.c.v.c.c.c.c.c.c.c.c.c.x.x.x.4.x.d.h.h.h.0.` &.7 o m.",
"o % q -.=.+.3.3.1.A 4.x.x.c.c.x.c.c.c.v.c.v.n.b.n.v.c.c.v.c.c.c.c.c.c.x.c.5.4.4.e.h.h.i.8.c &.7 o m.",
"o - t -.=.) :.3.&.A 5.x.x.x.x.c.c.c.c.c.c.c.d.h.h.d.v.c.c.c.c.c.c.c.c.c.x.x.x.4.[ n n 4 3 z *.w $ o ",
"o - V =.=.=.2.3._ D 5.5.5.c.c.c.c.c.c.c.;.1.w.g.u.T v.v.c.c.c.c.c.x.x.x.x.5.5.4.:.b l l g ) *.e $ o ",
"o - F =.*.=.2.+.N :.4.5.5.c.c.c.c.c.c.c.1.1.Y 5 5 5 k.c.c.c.c.c.c.c.c.x.x.5.5.5.4.3.:.*.=.*.:.w % o ",
"o = F =.o.2.*.A &.3.5.5.5.5.c.c.c.c.c.c.c.c.1.5 < Q c.c.c.c.c.c.x.c.x.x.5.5.z.4.3.3.3.2.*.=.( , O o ",
"o % d =.*.*.*.) 3.3.5.5.5.5.c.c.c.c.c.c.c.c.c.c.1.c.c.c.c.c.c.c.c.c.x.x.5.5.4.4.3.3.2.=.*.X.0 % o o ",
"O O r =.o.*.=.2.3.3.3.z.4.x.x.x.x.c.:.;.c.c.c.c.c.c.c.c.c.c.c.c.x.x.x.x.x.4.4.3.3.3.2.=.o.d = O X o ",
"o * u =.o.=.=.2.3.3.4.4.4.x.x.x.x.x.1.<.c.x.c.c.c.c.c.c.c.x.c.x.x.x.x.5.4.4.4.3.3.3.2.o.X.> = O o o ",
"o * t -.o.o.=.=.2.3.3.4.>.4.4.x.x.x.x.x.c.c.c.c.c.c.c.c.c.c.x.x.x.x.4.5.4.4.3.3.:.:.=.) e ; ; ; o o ",
"o - t =.o.o.o.=.2.2.3.3.' 4.4.4.5.x.x.x.x.x.x.x.x.x.c.x.x.x.x.x.x.5.5.4.4.:.' A 8 y J V J o.F 8 O o ",
"o - y -.o.o.o.=.=.2.3.3.J ;.4.x.5.5.x.x.x.x.x.x.x.c.x.x.x.x.x.5.5.4.4.3.( F Z @.X.) P o.o.o._ , # o ",
"o * y -.o.o.o.j.p.f.s.,.] d :.3.4.z.5.5.x.x.x.x.5.5.x.5.x.5.x.4.5.4.#.( :.:.:.2.*.*.%.o.o.o.P , O o ",
"o * y -.o.o.o.p.h.h.g.7.O.e , V 3.4.4.4.4.z.5.4.5.5.5.5.4.4.4.4.3.4.3.3.3.2.2.=.*.o.o.o.%.o.C : o m.",
"m.& t *.o.o.o.T w.p.7.x ' D e A F 3.4.4.4.5.5.4.5.4.4.4.4.4.>.4.3.4.4.j.s.,.*.*.*.X.L o.P u q ; o m.",
"m.% q *.%.%.o.R 1 2 1 z @.( O.2.) A 3.3.4.4.4.4.4.4.4.5.4.+.L O.3.>.f.h.g.8.) %.o.o. .Z Z  .u ; o m.",
"m.o ; N %.%.o.%.~ f g K H Z *.-.3.C ] 3.3.3.3.3.3.4.3.3.3.&.L &.3.f.h.g.0.x j o.o.o.o.o.o.o.r - o m.",
"m.o % ; 7 L -.%.o.o.o.u 0 X.*.2.=.C _ 2.3.3.) O.3.3.3.3.3.3.2.2.2.t.p.0.4 < G o.o.o.o.o.o.X.9 * o m.",
"m.o o O & ; y _ *.o.o.V o.%.%.*.=.y =.-.3.:.*.2.2.3.2.2.2.-.=.=.@.Q 3 < a k  .o.o.o.o.o.o.u : % o m.",
"m.m.o o o + - : t P P  .o.o.o.P L F *.=.=.=.-.*.=.=.=.=.*.*.*.P Z P K K  .o.o.o.o.o.o.X.r ; % o o m.",
"m.m.m.o o o o % - 7 y  .o.o.o.o. .%.%.%.%.*.*.-.=.=.=.=.*.%.*.X.H o.o.o.o.%.o.o.o.o.o.r ; % o o m.m.",
"m.m.m.m.o o o o @ & - 7 t u V F P _ &.*.&.*._ _ L L L _ &.*.-.*.*.*.*.o.&.X.X.P J V 9 @ + o o o m.m.",
"m.m.m.m.m.o o O & .   6 6 ; 6 7 ; ; ; ; : ; : ; - ; - ; : 7 w ; ; 9 w 0 : : ; ; 7 - = O o o o m.m.m.",
"m.m.m.m.m.m.m.o o o + % % % % % $ O $ O $ o o O   o o o o $ $ O   O % $ $ o o o o o o o o o m.m.m.m.",
"m.m.m.m.m.m.m.m.m.m.m.m.m.m.m.m.o o o o o o o o o o o o o o o o   X o o o o o m.m.m.m.m.m.m.m.m.m.m."
};
