/* XPM */
static char *_5120_bdd7a23c53a231b3ea122ae2b0c373e58e2085fea417ae32d52bac05ad94eca7[] = {
/* columns rows colors chars-per-pixel */
"50 50 158 2 ",
"   c #040404",
".  c #060606",
"X  c #0E0503",
"o  c #0F0604",
"O  c #0B0B0A",
"+  c #1D0B07",
"@  c #1A1919",
"#  c #260E0A",
"$  c #272624",
"%  c #282828",
"&  c #2C2C2C",
"*  c #42170E",
"=  c #4C1E14",
"-  c #551E12",
";  c #581D10",
":  c #5B1E11",
">  c #6A2A1B",
",  c #6E2B1B",
"<  c #464545",
"1  c #797676",
"2  c #787877",
"3  c #822C17",
"4  c #882F18",
"5  c #892E19",
"6  c #8F2F19",
"7  c #933319",
"8  c #953219",
"9  c #9B361B",
"0  c #9C361B",
"q  c #9A391B",
"w  c #9F3C1C",
"e  c #A0391C",
"r  c #A33D1D",
"t  c #A33E1C",
"y  c #A33E1D",
"u  c #A4411D",
"i  c #A6441E",
"p  c #A7461E",
"a  c #A9421D",
"s  c #A8471F",
"d  c #AB461F",
"f  c #8B4435",
"g  c #BC472C",
"h  c #BE482C",
"j  c #B4563F",
"k  c #B7573F",
"l  c #C3472A",
"z  c #C4472A",
"x  c #C6492A",
"c  c #C7492A",
"v  c #CB4A2A",
"b  c #CF4E2B",
"n  c #D14D2B",
"m  c #D24D2B",
"M  c #D24F2B",
"N  c #D54F2B",
"B  c #D24F2C",
"V  c #DF512D",
"C  c #DF542E",
"Z  c #DF562E",
"A  c #CF5032",
"S  c #CF5033",
"D  c #D95635",
"F  c #DE5535",
"G  c #DD5734",
"H  c #DE5835",
"J  c #DF5935",
"K  c #DE5836",
"L  c #DE5B36",
"P  c #DE5C37",
"I  c #D45E3F",
"U  c #DC593C",
"Y  c #DD593C",
"T  c #E0522D",
"R  c #E1522D",
"E  c #E3542E",
"W  c #E6572F",
"Q  c #E1582E",
"!  c #E4592F",
"~  c #EA5B2F",
"^  c #E15B36",
"/  c #E75836",
"(  c #E65B36",
")  c #E95A30",
"_  c #E25E38",
"`  c #E55F38",
"'  c #E55C3D",
"]  c #E45C3E",
"[  c #ED5E3F",
"{  c #EE5E3F",
"}  c #EB6032",
"|  c #E6623F",
" . c #E7623F",
".. c #ED6239",
"X. c #EE6239",
"o. c #ED633A",
"O. c #EF653A",
"+. c #EF663B",
"@. c #935343",
"#. c #B75B45",
"$. c #BB604A",
"%. c #BF624A",
"&. c #C06046",
"*. c #C36B51",
"=. c #CA6B55",
"-. c #E06242",
";. c #E56440",
":. c #E76541",
">. c #E76741",
",. c #E86540",
"<. c #EA6540",
"1. c #E96741",
"2. c #EA6641",
"3. c #EE6741",
"4. c #E96245",
"5. c #E96246",
"6. c #EC6246",
"7. c #EE6A42",
"8. c #EE6847",
"9. c #EE6947",
"0. c #EF6947",
"q. c #ED6C49",
"w. c #F56547",
"e. c #F36842",
"r. c #F36942",
"t. c #F36C43",
"y. c #F46D43",
"u. c #F16948",
"i. c #F06B49",
"p. c #F06C48",
"a. c #F06D49",
"s. c #F06F4A",
"d. c #F46C4A",
"f. c #F56E4A",
"g. c #F76F4A",
"h. c #F66F4B",
"j. c #F2684C",
"k. c #F3684C",
"l. c #F5684C",
"z. c #F7684C",
"x. c #F86F4B",
"c. c #F57146",
"v. c #F6714A",
"b. c #F1724C",
"n. c #F5704F",
"m. c #F5724F",
"M. c #F6734F",
"N. c #F5754D",
"B. c #F8724C",
"V. c #F9734F",
"C. c #F57451",
"Z. c #F77751",
"A. c #F57752",
"S. c #F97350",
"D. c #F97752",
"F. c #888685",
"G. c #8C8A8A",
"H. c None",
/* pixels */
"H.H.H.H.H.H.H.H.H.H.H.H.H.H.H.H.H.H.H.H.H.H.H.H.H.H.H.H.H.H.H.H.H.H.H.H.H.H.H.H.H.H.H.H.H.H.H.H.H.H.",
"H.H.H.H.H.H.H.H.H.H.H.H.H.H.H.H.H.H.H.H.H.H.H.H.H.H.H.H.H.H.H.H.H.H.H.H.H.H.H.H.H.H.H.H.H.H.H.H.H.H.",
"H.H.H.H.H.H.H.H.H.H.H.H.H.H.H.H.H.H.H.H.H.H.H.H.H.H.H.H.H.H.H.H.H.H.H.H.H.H.H.H.H.H.H.H.H.H.H.H.H.H.",
"H.H.H.H.H.H.H.H.H.H.H.H.H.H.H.H.H.H.H.H.H.H.H.H.H.H.H.H.H.H.H.H.H.H.H.H.H.H.H.H.H.H.H.H.H.H.H.H.H.H.",
"H.H.H.H.H.H.H.H.H.H.H.H.H.H.H.H.H.H.H.H.H.H.H.H.H.H.H.H.H.H.H.H.H.H.H.H.H.H.H.H.H.H.H.H.H.H.H.H.H.H.",
"H.H.H.H.H.H.H.H.H.H.H.H.H.H.H.H.H.H.H.H.H.H.H.H.H.H.H.H.H.H.H.H.H.H.H.H.H.H.H.H.H.H.H.H.H.H.H.H.H.H.",
"H.H.H.H.H.H.H.H.H.H.H.H.H.H.H.H.H.H.H.H.H.H.H.H.H.H.H.H.H.H.H.H.H.H.H.H.H.H.H.H.H.H.H.H.H.H.H.H.H.H.",
"H.H.H.H.H.H.H.H.H.H.H.H.H.H.H.H.H.H.H.H.H.H.H.H.H.H.H.H.H.H.H.H.H.H.H.H.H.H.H.H.H.H.H.H.H.H.H.H.H.H.",
"H.H.H.H.H.H.H.H.H.H.H.H.H.H.H.H.H.H.H.H.H.H.H.H.H.H.H.H.H.H.H.H.H.H.H.H.H.H.H.H.H.H.H.H.H.H.H.H.H.H.",
"H.H.H.H.H.H.H.H.H.H.H.H.H.H.H.H.H.H.H.H.H.H.H.H.H.H.H.H.H.H.H.H.H.H.H.H.H.H.H.H.H.H.H.H.H.H.H.H.H.H.",
"H.H.H.H.H.H.H.H.H.H.H.H.H.H.H.H.H.H.H.H.H.H.H.H.H.H.H.H.H.H.H.H.H.H.H.H.H.H.H.H.H.H.H.H.H.H.H.H.H.H.",
"H.H.H.H.H.H.H.H.H.H.H.H.H.H.H.H.H.H.H.H.H.H.H.H.H.H.H.H.H.H.H.H.H.H.H.H.H.H.H.H.H.H.H.H.H.H.H.H.H.H.",
"H.H.H.H.H.H.H.H.H.H.H.H.H.H.H.H.H.H.H.H.H.H.H.H.H.H.H.H.H.H.H.H.H.H.H.H.H.H.H.H.H.H.H.H.H.H.H.H.H.H.",
"H.H.H.H.H.H.H.H.H.H.H.H.H.H.H.H.H.H.H.H.H.H.H.H.H.H.H.H.H.H.H.H.H.H.H.H.H.H.H.H.H.H.H.H.H.H.H.H.H.H.",
"H.H.H.H.H.H.H.H.H.H.H.H.H.H.H.H.% 2 < H.H.H.H.H.H.H.H.H.H.H.H.H.H.H.H.H.H.H.H.H.H.H.H.H.H.H.H.H.H.H.",
"H.H.H.H.H.H.H.H.H.H.H.H.H.H.H.H.@ G.@.3 7 y p i s e q 9 w 5 : H.H.H.H.H.H.H.H.H.H.H.H.H.H.H.H.H.H.H.",
"H.H.H.H.H.H.H.H.H.H.H.H.H.H.H.H.O F.k l N E ) R Z x B T ! c n - H.H.H.H.H.H.H.H.H.H.H.H.H.H.H.H.H.H.",
"H.H.H.H.H.H.H.H.H.H.H.H.H.H.H.H.O F.#.G ^ / O...L A _ ..` A J h o H.H.H.H.H.H.H.H.H.H.H.H.H.H.H.H.H.",
"H.H.H.H.H.H.H.H.H.H.H.H.H.H.H.H.O F.%.U <.r.t.[ >.:.7.{ 3. .,.U > H.H.H.H.H.H.H.H.H.H.H.H.H.H.H.H.H.",
"H.H.H.H.H.H.H.H.H.H.H.H.H.H.H.H.O F.*.0.v.w.B.f.q.4.N.g.a.4.p.9.-.# H.H.H.H.H.H.H.H.H.H.H.H.H.H.H.H.",
"H.H.H.H.H.H.H.H.H.H.H.H.H.H.H.H.O F.=.k.S.V.D.l.A.C.D.z.Z.m.n.j.M.= H.H.H.H.H.H.H.H.H.H.H.H.H.H.H.H.",
"H.H.H.H.H.H.H.H.H.H.H.H.H.H.H.H.O F.*.u.g.w.x.i.b.6.h.d.s.5.a.8.I + H.H.H.H.H.H.H.H.H.H.H.H.H.H.H.H.",
"H.H.H.H.H.H.H.H.H.H.H.H.H.H.H.H.O F.$.' r.e.y.Y ;.2.c.] 1.| | U , H.H.H.H.H.H.H.H.H.H.H.H.H.H.H.H.H.",
"H.H.H.H.H.H.H.H.H.H.H.H.H.H.H.H.O F.&.( X./ o.D P F +.K L S H g X H.H.H.H.H.H.H.H.H.H.H.H.H.H.H.H.H.",
"H.H.H.H.H.H.H.H.H.H.H.H.H.H.H.H.O F.j V ~ W Q l b C } z M v m * H.H.H.H.H.H.H.H.H.H.H.H.H.H.H.H.H.H.",
"H.H.H.H.H.H.H.H.H.H.H.H.H.H.H.H.O F.f 9 t a y 0 r d u 6 8 4 ; H.H.H.H.H.H.H.H.H.H.H.H.H.H.H.H.H.H.H.",
"H.H.H.H.H.H.H.H.H.H.H.H.H.H.H.H.O F.& H.H.H.H.H.H.H.H.H.H.H.H.H.H.H.H.H.H.H.H.H.H.H.H.H.H.H.H.H.H.H.",
"H.H.H.H.H.H.H.H.H.H.H.H.H.H.H.H.O F.& H.H.H.H.H.H.H.H.H.H.H.H.H.H.H.H.H.H.H.H.H.H.H.H.H.H.H.H.H.H.H.",
"H.H.H.H.H.H.H.H.H.H.H.H.H.H.H.H.O F.& H.H.H.H.H.H.H.H.H.H.H.H.H.H.H.H.H.H.H.H.H.H.H.H.H.H.H.H.H.H.H.",
"H.H.H.H.H.H.H.H.H.H.H.H.H.H.H.H.O F.& H.H.H.H.H.H.H.H.H.H.H.H.H.H.H.H.H.H.H.H.H.H.H.H.H.H.H.H.H.H.H.",
"H.H.H.H.H.H.H.H.H.H.H.H.H.H.H.H.O F.& H.H.H.H.H.H.H.H.H.H.H.H.H.H.H.H.H.H.H.H.H.H.H.H.H.H.H.H.H.H.H.",
"H.H.H.H.H.H.H.H.H.H.H.H.H.H.H.H.O F.& H.H.H.H.H.H.H.H.H.H.H.H.H.H.H.H.H.H.H.H.H.H.H.H.H.H.H.H.H.H.H.",
"H.H.H.H.H.H.H.H.H.H.H.H.H.H.H.H.O F.& H.H.H.H.H.H.H.H.H.H.H.H.H.H.H.H.H.H.H.H.H.H.H.H.H.H.H.H.H.H.H.",
"H.H.H.H.H.H.H.H.H.H.H.H.H.H.H.H.O F.& H.H.H.H.H.H.H.H.H.H.H.H.H.H.H.H.H.H.H.H.H.H.H.H.H.H.H.H.H.H.H.",
"H.H.H.H.H.H.H.H.H.H.H.H.H.H.H.H.O F.& H.H.H.H.H.H.H.H.H.H.H.H.H.H.H.H.H.H.H.H.H.H.H.H.H.H.H.H.H.H.H.",
"H.H.H.H.H.H.H.H.H.H.H.H.H.H.H.H.. 1 $ H.H.H.H.H.H.H.H.H.H.H.H.H.H.H.H.H.H.H.H.H.H.H.H.H.H.H.H.H.H.H.",
"H.H.H.H.H.H.H.H.H.H.H.H.H.H.H.H.H.  H.H.H.H.H.H.H.H.H.H.H.H.H.H.H.H.H.H.H.H.H.H.H.H.H.H.H.H.H.H.H.H.",
"H.H.H.H.H.H.H.H.H.H.H.H.H.H.H.H.H.H.H.H.H.H.H.H.H.H.H.H.H.H.H.H.H.H.H.H.H.H.H.H.H.H.H.H.H.H.H.H.H.H.",
"H.H.H.H.H.H.H.H.H.H.H.H.H.H.H.H.H.H.H.H.H.H.H.H.H.H.H.H.H.H.H.H.H.H.H.H.H.H.H.H.H.H.H.H.H.H.H.H.H.H.",
"H.H.H.H.H.H.H.H.H.H.H.H.H.H.H.H.H.H.H.H.H.H.H.H.H.H.H.H.H.H.H.H.H.H.H.H.H.H.H.H.H.H.H.H.H.H.H.H.H.H.",
"H.H.H.H.H.H.H.H.H.H.H.H.H.H.H.H.H.H.H.H.H.H.H.H.H.H.H.H.H.H.H.H.H.H.H.H.H.H.H.H.H.H.H.H.H.H.H.H.H.H.",
"H.H.H.H.H.H.H.H.H.H.H.H.H.H.H.H.H.H.H.H.H.H.H.H.H.H.H.H.H.H.H.H.H.H.H.H.H.H.H.H.H.H.H.H.H.H.H.H.H.H.",
"H.H.H.H.H.H.H.H.H.H.H.H.H.H.H.H.H.H.H.H.H.H.H.H.H.H.H.H.H.H.H.H.H.H.H.H.H.H.H.H.H.H.H.H.H.H.H.H.H.H.",
"H.H.H.H.H.H.H.H.H.H.H.H.H.H.H.H.H.H.H.H.H.H.H.H.H.H.H.H.H.H.H.H.H.H.H.H.H.H.H.H.H.H.H.H.H.H.H.H.H.H.",
"H.H.H.H.H.H.H.H.H.H.H.H.H.H.H.H.H.H.H.H.H.H.H.H.H.H.H.H.H.H.H.H.H.H.H.H.H.H.H.H.H.H.H.H.H.H.H.H.H.H.",
"H.H.H.H.H.H.H.H.H.H.H.H.H.H.H.H.H.H.H.H.H.H.H.H.H.H.H.H.H.H.H.H.H.H.H.H.H.H.H.H.H.H.H.H.H.H.H.H.H.H.",
"H.H.H.H.H.H.H.H.H.H.H.H.H.H.H.H.H.H.H.H.H.H.H.H.H.H.H.H.H.H.H.H.H.H.H.H.H.H.H.H.H.H.H.H.H.H.H.H.H.H.",
"H.H.H.H.H.H.H.H.H.H.H.H.H.H.H.H.H.H.H.H.H.H.H.H.H.H.H.H.H.H.H.H.H.H.H.H.H.H.H.H.H.H.H.H.H.H.H.H.H.H.",
"H.H.H.H.H.H.H.H.H.H.H.H.H.H.H.H.H.H.H.H.H.H.H.H.H.H.H.H.H.H.H.H.H.H.H.H.H.H.H.H.H.H.H.H.H.H.H.H.H.H.",
"H.H.H.H.H.H.H.H.H.H.H.H.H.H.H.H.H.H.H.H.H.H.H.H.H.H.H.H.H.H.H.H.H.H.H.H.H.H.H.H.H.H.H.H.H.H.H.H.H.H."
};
