/* XPM */
static char *_023_2b295c16e7249d4a519eeeb6e643b2ed811b8bb7981491cc1cf3f21d3cff5898[] = {
/* columns rows colors chars-per-pixel */
"50 50 105 2 ",
"   c #587A21",
".  c #587B21",
"X  c #597B21",
"o  c #597C21",
"O  c #5A7D20",
"+  c #5B7D20",
"@  c #5A7C21",
"#  c #5A7D21",
"$  c #5B7D21",
"%  c #5B7E20",
"&  c #5B7F20",
"*  c #5B7E21",
"=  c #5C7E20",
"-  c #5C7F20",
";  c #5D7F20",
":  c #5C7E21",
">  c #5D7E21",
",  c #5C7F21",
"<  c #5D7F21",
"1  c #5D8020",
"2  c #5D8021",
"3  c #5E8021",
"4  c #5E8121",
"5  c #5F8121",
"6  c #5F8221",
"7  c #5D8022",
"8  c #5D8023",
"9  c #5E8022",
"0  c #5E8122",
"q  c #5F8122",
"w  c #5E8023",
"e  c #5F8222",
"r  c #608221",
"t  c #608321",
"y  c #618321",
"u  c #608122",
"i  c #608123",
"p  c #608222",
"a  c #608322",
"s  c #618322",
"d  c #608223",
"f  c #608323",
"g  c #618323",
"h  c #628322",
"j  c #628323",
"k  c #628421",
"l  c #618422",
"z  c #618423",
"x  c #628422",
"c  c #638422",
"v  c #638522",
"b  c #628423",
"n  c #628523",
"m  c #638523",
"M  c #638623",
"N  c #648522",
"B  c #648523",
"V  c #648622",
"C  c #648623",
"Z  c #658623",
"A  c #648723",
"S  c #658723",
"D  c #668722",
"F  c #668723",
"G  c #618224",
"H  c #628424",
"J  c #628524",
"K  c #638524",
"L  c #648524",
"P  c #648624",
"I  c #658624",
"U  c #658724",
"Y  c #648625",
"T  c #658625",
"R  c #648725",
"E  c #658725",
"W  c #668724",
"Q  c #668823",
"!  c #678823",
"~  c #678923",
"^  c #658824",
"/  c #668824",
"(  c #678824",
")  c #668924",
"_  c #678924",
"`  c #668825",
"'  c #678825",
"]  c #668925",
"[  c #678925",
"{  c #678926",
"}  c #688924",
"|  c #688925",
" . c #698A24",
".. c #688A25",
"X. c #698A25",
"o. c #6A8B25",
"O. c #688A26",
"+. c #698A26",
"@. c #698B26",
"#. c #6A8B26",
"$. c #6A8B27",
"%. c #6A8C26",
"&. c #6B8C26",
"*. c #6B8C27",
"=. c #6B8D27",
/* pixels */
"% - % % % % % % % % % % % % % % % % % % % % % % - % % % % % % % % % % % % % % % % % % % % % % , % % ",
"% ! V - % % % 1 % % % % % % % % % % % t p ; @ a / a % % % % % 2 % % % % % % % % % % % h p % % / S 4 ",
"% | | % % % / | % % % % % , 4 2 % % %  .X.o O 2 K % % % % ; W [ % % % % % 4 - < % % % | %.% % 5 b % ",
"% 2 2 % % % p z % % % % 3 ^ U s % % % q d   + % < % % % % % i p % % % - u / _ 4 % % % d d % % % % % ",
"% % % % % % % % % % % % } d ' - % % % % % X % % U 6 o.% % @ O % % % % % / g E % % % % % % % % % % % ",
"% % % % % % % % % % % % % - - % % % % % % % % % a { p % %   O % % % % % - % - % % % % # % % % % % % ",
"% % % % % % % % % % % % % % % % % % % % % % % % % - % % % X % % % % % % % % % % % % % @ + % % % % % ",
"% % % # % % % % % % % % % % % % % % a 2 % % % % % % % % % % % % % % % % % % % % % % V q @ % % % % % ",
"% % % X % x - s % % % % % % % % % % | U % % % % % % % % % S 3 t % % % % % % % % % % $.s + % % % % % ",
"% % % @ 7 ' K 3 % % % % % % % % % % - % % % % - % % % % x U Y - % % % % % % % % % % , % % % % - % % ",
"% % % % O - & % % % % % % % % % % % % @ % 2 x F % - % % % - % % % % % % % % % % % % % % % s e Q % % ",
"% % % % % % % % % % % % % % - 2 % % % O @ % @.U C 5 % % % % % % O % % % % 2 % 2 % % % % % = %.P / % ",
"% - p % % % % % % % % % % - B #.% % % % % % 2 - 2 r 1 % % % % @ O % % % % 5 b ` % % % % % % 9 - 2 % ",
"5 C / p e % % % - 1 ; % % % 0 2 % % % % % % % % C ( h C 2 % % O 3 % 5 % % % 4 2 % % % % % % % % % % ",
"% U z b % % % % D ..U % % % % % % % % % % % % % % ' f z % % % 2 o.) x % % % % % % % % % % % % % % % ",
"% O   % % % % % m g - % % % % % % % % % % % % % % % % % % % % - Y g % % % % % % % % % % % # @ % % % ",
"% % % % % % % % % % % % % % % % % % % % % % , % - % % % % % % % % % % % % % % % % % % % %   , % ; % ",
"% % % % % % % % % % % % % % % % - % % % % % 6 I ( % % % % % % % % % % % % % % % - % % % # X v m C % ",
"% % % % % % O % % % % % % % - / I 1 % % % % % 0 2 % % % % % % % % % % % % % 1 A W - % % % % % q 2 % ",
"% % % % r 1 : # % % % % % % % H n v % % % % % % + % % % s 2 - % % % % % % % % H m g % % % % % % % % ",
"% % 2 p ( X.3   @ % % % % % % % % % % % % % % % % % 2 p ....1 % % % % % % % % % % % % % % % % % % % ",
"% % % K 0 b % O   X % % % O % % % % % % % % % % % % % m e n % % % % % % % % % % % % % % % % % % % % ",
"% % % % % % % % + + x 2 m @ @ % % % % % % % % % % % % % % % % % % , s , v % % % % % % % % % % % % % ",
"% % % % % % % % % % / P g % X % % % k - x % % % % % % % % % % % % < O.K 0 % % % % % 6 % y % % % % % ",
"% % % % % % % % % % % % % % % % % % 1 E m % % % % % % % % % % % % o # % % % % % # % a m q % % % % % ",
"% s p % % % % % % % % % % % % % % % % 2 % ; % 4 s 0 % % % % % % % X + % % % % @ @ % % 3 , - % m 5 2 ",
"% o.&.% % % x S % % % % % % % % % % % } _ - % 5 *.2 % % % 1 0 Q % % % % % % %   + % % } | % % J [ % ",
"% d d % % % B P % @ % % % S c v % % % K R % % % - % % % % % P P % % % % - S s 9 % % % m L % % % - % ",
"% % % % % % % & % o # % _ M *.2 % % % % - % % % % 2 % * # % - - % % % 2 / T #.% % % % % - % % % % % ",
"% % % % % % % % % % O % 2 - 7 % % % % % % % % % % } Q > @ % % % % % % % 2 - 7 % % % % % % % % % % % ",
"% % % % % % % % % % % % % % % % % O % % % % % % % P [ o @ % % % % % % % % % % % % % % % % % % % % % ",
"% % % % % % % % % % % % % % % % % X 3 , % % % % % % - o o % % % % % % % % % % % % % 3 - % % % % % % ",
"% % % % % p % 5 % % % % % % % % %   [ _ % % % % % % % % O s % 5 % % % % % % % % % % &.U % % % % @ % ",
"% % % % 6 _ b s % % % % % % % % % @ 8 < % % % % % % % % a o.U 4 % % % % % % % % % % f % % % % X O % ",
"% % % % % 4 2 % % % % % % % % % % % % % % - 2 N % % % % - 4 2 % % % % * # % % % % % % % % 2 < w % % ",
"% % % % % % % % % % % % % % % , % % % % % % &.| 6 5 % % % % % % % % % @ @ % % - % % % % % 2 +./ v % ",
"% % 1 % % % % % % % % % % 1 s U % % % % % % g 4 g 2 - % % % % % % % % X @ e p C % % % % % % n 4 g % ",
"5 5 S 3 p % % % % % % % % % g q % % % % % % % % s C p e 1 % % % - % % o o - H p % % % % % % % % % % ",
"- %.Y K = % % % l C v % % % % O X % % % % % % % s =.b U % % % - ~ v N % O % % % % % % % % % % % % % ",
"% % - - % % % % ' { 7 % % % % % % % % % % % % % % $ % - % % % - X.{ - % % % % % % % % % % % % % % % ",
"% % % % @ % % % ; % % % % % % % % % % % % % % % % o @ % % % % % - % % % % % % % % % % % % % - % % % ",
"% % % % O . % % % % % % % % % % % % % % % % 5 p x O @ % % % % % % % % % % % % % % % % % % % S 2 x % ",
"% % % % % o   O % % % % % % - p x - % % % % % R q % % % % % % % % % % % % % 4 q h % O % % % 1 P q % ",
"% % % % 2 - O % % % % % % % % ` U x % % % % % % % % % % 2 % % % % % % % % % # O.[ j % % % % % % % % ",
"% % - 5 S / 6 % % % % % % % % - , & % % % % % % % % < 1 } ( 3 % % % % % % % @ , - # % % % % % % % % ",
"% % % ( b [ % % % % % % % % % % % % % % % % % % % % % P K ] % % % % % % % X O % % % % % % % % % % % ",
"% % % , % - % % % % 6 + 4 = % % % % % % % % % % % % % , % , % % % % 4 % 3   O % % % % % % % % % % % ",
"% % % % % % % % % % / G / % % % % % 3 % 1 % % % % % % % % % % % % 2 X.m Z X + % % % - % 5 % % % % % ",
"% % % % % % % % % % 4 : X % % % % % 0 U U % % % % % % % % % % % % % 4 , % % % % % % M b C % % % % % ",
"% % % % % % % % % % % % O % % % % % % 2 - % % % % % % % % % % % % % % % % % % % % % - 3 % % % % % % "
};
