/* XPM */
static char *_3048_87bc65c11853633e7f8cb05f64a58634c9e7cbe2ddbe20a321682ca61a231ae6[] = {
/* columns rows colors chars-per-pixel */
"50 50 48 1 ",
"  c #6C553A",
". c #73613D",
"X c #695A47",
"o c #67594B",
"O c #665C51",
"+ c #6B5F52",
"@ c #776447",
"# c #796640",
"$ c #7E6A44",
"% c #72634B",
"& c #6E6253",
"* c #6A635D",
"= c #7C6C53",
"- c #776A5A",
"; c #7C6E5B",
": c #6E6762",
"> c #726A66",
", c #796F66",
"< c #766C69",
"1 c #7B706E",
"2 c #7E7271",
"3 c #837047",
"4 c #867249",
"5 c #8A754B",
"6 c #8F7A4F",
"7 c #957647",
"8 c #987745",
"9 c #977947",
"0 c #987845",
"q c #937749",
"w c #91794C",
"e c #837152",
"r c #897650",
"t c #8E7952",
"y c #84755D",
"u c #8E7A5A",
"i c #927B54",
"p c #917F6A",
"a c #857974",
"s c #867B7A",
"d c #93816B",
"f c #938173",
"g c #96847B",
"h c #8F8182",
"j c #938484",
"k c #998986",
"l c #978789",
"z c #9B8B8D",
/* pixels */
"66666666d39666456666666666d39759666666666666666966",
"665666690000990d66666666664$4d66666666666666660006",
"653t66ww69599004666666666ddgdd66666666666666669999",
"6646669w959994096666666666dgkd66666666666666666596",
"rplzfw9w5996999966wwd066$<gkkfdd666666666666669996",
"=gzzliww9599996966365464$*:>,;03666666666645666555",
"@:22,6ww59999466663w6663d..O.d4666d666663466449606",
"4oO+ewww99404d56665665464d6644w6659666655666646996",
"64$5696ww99d66636666d4940088745w666666666666646656",
"666t6659950366366666346777808736666666666666w369ww",
"666w69640094663666649908777780w4666666666666d366ww",
"66666ww904d646463d6669777777800d5666666666666066ww",
"66dq5q994666464649969777777783094w6w6666666644d666",
"t6w67d40666636634456787777778800496566666666dr946w",
"wt66449d6666666445568877757704404dd.96666666ragdd6",
"tw66d75w666466445663d05799779900950666666656-szzdd",
"6649666466644336d64#655009999499966666666666&sjzkd",
"634d69606666.5669466545560499905656666666666&,hzkd",
"6463354d66663d666636664d60999599964466666666X*asfu",
"6w66666666w449666664559909969995996966666666$.O%#d",
"66666666666566666996999949044877964d665666666666d6",
"6666w666666566699999956997799d04w96466666666666646",
"66666346666666dw60956959d8099579956546666666666666",
"6666944666666494wd596995033d9995959666666666666666",
"6666666666666649fzzgdw5609ww9w9d969965666655666666",
"66666666666666d$jzzzdww995595w07596566666ww9666666",
"666666666666666$hzkkfd965309959396656666666d666666",
"666666666666666.<21:$4ww9d05d993669956666666666666",
"66666666666666d3+X#$946ww6993596www666566666666666",
"6666666666665406d49d946ww6490996ww6w66466666666666",
"666666d9666666663dd809wwww039dd5wwww65666666666666",
"66666669666666940593d9556wdw5;gd6ww663666666543666",
"66666666466666664659666w6w66w.-ad6665.666666666435",
"6666666664666666666695www666w534495345466666666666",
"66664446646666666666d696w669666666466556666666d966",
"66666664#46666664566405666656w66544565666666666666",
"66666666366666664666w5dw666w6666444564666666666666",
"66666666666666664666693466666666656564666669666666",
"666660966666666646666636666666666465646w6666666666",
"6666dd99666666665466333666666666665466644666666666",
"93d$hzgd99999w650443665096665466666566d55666666666",
"4d4.>gzk66965999d469900009664666663665566666666666",
"664 *>gg696669w90999999406655666665666666666666666",
"66d4 OO$666996599599999996456669656666666dd6666649",
"66665336w5696969999999696546666d66666666yzzg666434",
"6666409ww9w59694495949996466666665666666*sks666456",
"4d664ddwww966999699999664666666666666666%::=666466",
"99w6940ww66696499595956666666666666666664%#666w456",
"3.39d5690956ww666666666666666666666666666666666466",
"d94004664d6666666666666666666666666666666666d64966"
};
